<svg width="1440" height="1024" viewBox="0 0 1440 1024" fill="none" xmlns="http://www.w3.org/2000/svg">
<path d="M0 955.999C7.66667 944.666 31.7 921.899 66.5 921.499C101.3 921.099 613 925.666 864.5 927.999L1333 942C1363.33 953.833 1424 986.9 1424 1024.5" stroke="#B8AD7E" stroke-width="2"/>
<path d="M224.5 676.5L135 790C125.833 798.34 110.5 820.215 122.5 841C134.5 861.785 161.833 865.327 174 864.5H257C259.893 864.167 265.144 861.5 263 853.5C260.856 845.5 252.44 825.833 248.5 817L919 825.5L943 866.5C945 870 951.9 876 963.5 872C975.1 868 1007.33 854.333 1022 848H1140.5C1164.83 857.5 1216.3 876.5 1227.5 876.5C1238.7 876.5 1295.17 876.5 1322 876.5C1335.67 873.667 1363 860.5 1363 830.5C1363 793 1359.08 755.5 1348.5 716C1337.92 676.5 1271.5 443.949 1206 330.5C1140.5 217.051 1060 83 996.5 0M271 621.5L577 277.5L723.5 380C733 390.833 748.4 417 734 435C719.6 453 617.667 580.167 568.5 641.5M677.5 613.5C680.667 616.167 687.5 624 709 599.5C725.417 580.792 776.333 519.167 799 490C801.5 484.333 804.7 471.2 797.5 464C788.5 455 775.5 454 756 478.5C740.4 498.1 697.167 552.667 677.5 577.5C674.667 586.667 670.7 606.7 677.5 613.5Z" stroke="#B8AD7E" stroke-width="2"/>
<path d="M-39 862.5L719.5 0" stroke="#B8AD7E" stroke-width="2"/>
<path d="M1061.5 0C1106.17 60.8333 1202.5 198.7 1230.5 263.5C1265.5 344.5 1366.5 570.5 1383 644.5C1396.2 703.7 1426.5 790.833 1440 827" stroke="#B8AD7E" stroke-width="2"/>
<path d="M1178.5 378L1098 401L1201 693.5L1281.5 670L1178.5 378Z" fill="#B8AD7E"/>
<path d="M217 792.528L228.2 620.754L568.508 625.048V660.262L708.938 663.698L711.523 601L1110.42 607.012L1113 814L707.215 808.847V761.609L562.477 759.032L560.754 803.694L217 792.528Z" fill="#081C41"/>
<path d="M321.12 728V710.545H327.802C329.063 710.545 330.112 710.744 330.947 711.142C331.788 711.534 332.415 712.071 332.83 712.753C333.251 713.435 333.461 714.207 333.461 715.071C333.461 715.781 333.325 716.389 333.052 716.895C332.779 717.395 332.413 717.801 331.952 718.114C331.492 718.426 330.978 718.651 330.41 718.787V718.957C331.029 718.991 331.623 719.182 332.191 719.528C332.765 719.869 333.234 720.352 333.597 720.977C333.961 721.602 334.143 722.358 334.143 723.244C334.143 724.148 333.924 724.96 333.487 725.682C333.049 726.398 332.39 726.963 331.509 727.378C330.629 727.793 329.521 728 328.185 728H321.12ZM324.282 725.358H327.683C328.83 725.358 329.657 725.139 330.163 724.702C330.674 724.259 330.93 723.69 330.93 722.997C330.93 722.48 330.802 722.014 330.546 721.599C330.29 721.179 329.927 720.849 329.455 720.611C328.984 720.366 328.421 720.244 327.768 720.244H324.282V725.358ZM324.282 717.969H327.41C327.955 717.969 328.447 717.869 328.884 717.67C329.322 717.466 329.665 717.179 329.915 716.81C330.171 716.435 330.299 715.991 330.299 715.48C330.299 714.804 330.06 714.247 329.583 713.81C329.112 713.372 328.41 713.153 327.478 713.153H324.282V717.969ZM345.101 722.494V714.909H348.186V728H345.195V725.673H345.058C344.763 726.406 344.277 727.006 343.601 727.472C342.93 727.937 342.104 728.17 341.121 728.17C340.263 728.17 339.504 727.98 338.845 727.599C338.192 727.213 337.68 726.653 337.311 725.92C336.942 725.182 336.757 724.29 336.757 723.244V714.909H339.842V722.767C339.842 723.597 340.07 724.256 340.524 724.744C340.979 725.233 341.575 725.477 342.314 725.477C342.768 725.477 343.209 725.366 343.635 725.145C344.061 724.923 344.411 724.594 344.683 724.156C344.962 723.713 345.101 723.159 345.101 722.494ZM356.217 728.23C355.188 728.23 354.268 727.966 353.455 727.438C352.643 726.909 352.001 726.142 351.529 725.136C351.058 724.131 350.822 722.909 350.822 721.472C350.822 720.017 351.06 718.79 351.538 717.79C352.021 716.784 352.671 716.026 353.489 715.514C354.308 714.997 355.219 714.739 356.225 714.739C356.992 714.739 357.623 714.869 358.117 715.131C358.612 715.386 359.004 715.696 359.293 716.06C359.583 716.418 359.808 716.756 359.967 717.074H360.094V710.545H363.188V728H360.154V725.938H359.967C359.808 726.256 359.577 726.594 359.276 726.952C358.975 727.304 358.577 727.605 358.083 727.855C357.589 728.105 356.967 728.23 356.217 728.23ZM357.077 725.699C357.731 725.699 358.288 725.523 358.748 725.17C359.208 724.812 359.558 724.315 359.796 723.679C360.035 723.043 360.154 722.301 360.154 721.455C360.154 720.608 360.035 719.872 359.796 719.247C359.563 718.622 359.217 718.136 358.756 717.79C358.302 717.443 357.742 717.27 357.077 717.27C356.39 717.27 355.816 717.449 355.356 717.807C354.896 718.165 354.549 718.659 354.316 719.29C354.083 719.92 353.967 720.642 353.967 721.455C353.967 722.273 354.083 723.003 354.316 723.645C354.555 724.281 354.904 724.784 355.364 725.153C355.83 725.517 356.401 725.699 357.077 725.699ZM372.186 728.256C370.908 728.256 369.8 727.974 368.862 727.412C367.925 726.849 367.197 726.062 366.68 725.051C366.169 724.04 365.913 722.858 365.913 721.506C365.913 720.153 366.169 718.969 366.68 717.952C367.197 716.935 367.925 716.145 368.862 715.582C369.8 715.02 370.908 714.739 372.186 714.739C373.464 714.739 374.572 715.02 375.51 715.582C376.447 716.145 377.172 716.935 377.683 717.952C378.2 718.969 378.459 720.153 378.459 721.506C378.459 722.858 378.2 724.04 377.683 725.051C377.172 726.062 376.447 726.849 375.51 727.412C374.572 727.974 373.464 728.256 372.186 728.256ZM372.203 725.784C372.896 725.784 373.476 725.594 373.942 725.213C374.408 724.827 374.754 724.31 374.982 723.662C375.214 723.014 375.331 722.293 375.331 721.497C375.331 720.696 375.214 719.972 374.982 719.324C374.754 718.67 374.408 718.151 373.942 717.764C373.476 717.378 372.896 717.185 372.203 717.185C371.493 717.185 370.902 717.378 370.43 717.764C369.964 718.151 369.615 718.67 369.382 719.324C369.155 719.972 369.041 720.696 369.041 721.497C369.041 722.293 369.155 723.014 369.382 723.662C369.615 724.31 369.964 724.827 370.43 725.213C370.902 725.594 371.493 725.784 372.203 725.784ZM392.325 714.909L387.663 728H384.254L379.592 714.909H382.882L385.891 724.634H386.027L389.044 714.909H392.325ZM397.852 728.264C397.023 728.264 396.276 728.116 395.611 727.821C394.952 727.52 394.429 727.077 394.043 726.491C393.662 725.906 393.472 725.185 393.472 724.327C393.472 723.588 393.608 722.977 393.881 722.494C394.153 722.011 394.526 721.625 394.997 721.335C395.469 721.045 396 720.827 396.591 720.679C397.188 720.526 397.804 720.415 398.44 720.347C399.207 720.267 399.83 720.196 400.307 720.134C400.784 720.065 401.131 719.963 401.347 719.827C401.568 719.685 401.679 719.466 401.679 719.17V719.119C401.679 718.477 401.489 717.98 401.108 717.628C400.727 717.276 400.179 717.099 399.463 717.099C398.707 717.099 398.108 717.264 397.665 717.594C397.227 717.923 396.932 718.312 396.778 718.761L393.898 718.352C394.125 717.557 394.5 716.892 395.023 716.358C395.545 715.818 396.185 715.415 396.94 715.148C397.696 714.875 398.531 714.739 399.446 714.739C400.077 714.739 400.705 714.812 401.33 714.96C401.955 715.108 402.526 715.352 403.043 715.693C403.56 716.028 403.974 716.486 404.287 717.065C404.605 717.645 404.764 718.369 404.764 719.239V728H401.798V726.202H401.696C401.509 726.565 401.244 726.906 400.903 727.224C400.568 727.537 400.145 727.79 399.634 727.983C399.128 728.17 398.534 728.264 397.852 728.264ZM398.653 725.997C399.273 725.997 399.81 725.875 400.264 725.631C400.719 725.381 401.068 725.051 401.312 724.642C401.562 724.233 401.688 723.787 401.688 723.304V721.761C401.591 721.841 401.426 721.915 401.193 721.983C400.966 722.051 400.71 722.111 400.426 722.162C400.142 722.213 399.861 722.259 399.582 722.298C399.304 722.338 399.063 722.372 398.858 722.401C398.398 722.463 397.986 722.565 397.622 722.707C397.259 722.849 396.972 723.048 396.761 723.304C396.551 723.554 396.446 723.878 396.446 724.276C396.446 724.844 396.653 725.273 397.068 725.562C397.483 725.852 398.011 725.997 398.653 725.997ZM416.197 728H412.822L418.967 710.545H422.871L429.024 728H425.649L420.987 714.125H420.851L416.197 728ZM416.308 721.156H425.513V723.696H416.308V721.156Z" fill="#B8AD7E"/>
<path d="M382.3 586H376.386V568.545H382.42C384.153 568.545 385.641 568.895 386.886 569.594C388.136 570.287 389.096 571.284 389.766 572.585C390.437 573.886 390.772 575.443 390.772 577.256C390.772 579.074 390.434 580.636 389.758 581.943C389.087 583.25 388.119 584.253 386.852 584.952C385.59 585.651 384.073 586 382.3 586ZM379.548 583.264H382.147C383.363 583.264 384.377 583.043 385.19 582.599C386.002 582.151 386.613 581.483 387.022 580.597C387.431 579.705 387.636 578.591 387.636 577.256C387.636 575.92 387.431 574.812 387.022 573.932C386.613 573.045 386.008 572.384 385.207 571.946C384.411 571.503 383.423 571.281 382.241 571.281H379.548V583.264ZM399.435 586.256C398.123 586.256 396.989 585.983 396.035 585.438C395.086 584.886 394.356 584.108 393.844 583.102C393.333 582.091 393.077 580.901 393.077 579.531C393.077 578.185 393.333 577.003 393.844 575.986C394.362 574.963 395.083 574.168 396.009 573.599C396.935 573.026 398.023 572.739 399.273 572.739C400.08 572.739 400.842 572.869 401.558 573.131C402.279 573.386 402.915 573.784 403.467 574.324C404.023 574.864 404.461 575.551 404.779 576.386C405.097 577.216 405.256 578.205 405.256 579.352V580.298H394.526V578.219H402.299C402.293 577.628 402.165 577.102 401.915 576.642C401.665 576.176 401.316 575.81 400.867 575.543C400.424 575.276 399.907 575.142 399.316 575.142C398.685 575.142 398.131 575.295 397.654 575.602C397.177 575.903 396.805 576.301 396.538 576.795C396.276 577.284 396.143 577.821 396.137 578.406V580.222C396.137 580.983 396.276 581.636 396.555 582.182C396.833 582.722 397.222 583.136 397.722 583.426C398.222 583.71 398.808 583.852 399.478 583.852C399.927 583.852 400.333 583.79 400.697 583.665C401.06 583.534 401.376 583.344 401.643 583.094C401.91 582.844 402.112 582.534 402.248 582.165L405.129 582.489C404.947 583.25 404.6 583.915 404.089 584.483C403.583 585.045 402.935 585.483 402.146 585.795C401.356 586.102 400.452 586.256 399.435 586.256ZM414.403 572.909V575.295H406.878V572.909H414.403ZM408.736 569.773H411.821V582.062C411.821 582.477 411.884 582.795 412.009 583.017C412.139 583.233 412.31 583.381 412.52 583.46C412.73 583.54 412.963 583.58 413.219 583.58C413.412 583.58 413.588 583.565 413.747 583.537C413.912 583.509 414.037 583.483 414.122 583.46L414.642 585.872C414.477 585.929 414.241 585.991 413.935 586.06C413.634 586.128 413.264 586.168 412.827 586.179C412.054 586.202 411.358 586.085 410.739 585.83C410.119 585.568 409.628 585.165 409.264 584.619C408.906 584.074 408.73 583.392 408.736 582.574V569.773ZM427.143 576.369L424.33 576.676C424.251 576.392 424.112 576.125 423.913 575.875C423.719 575.625 423.458 575.423 423.129 575.27C422.799 575.116 422.396 575.04 421.918 575.04C421.276 575.04 420.737 575.179 420.299 575.457C419.867 575.736 419.654 576.097 419.66 576.54C419.654 576.92 419.793 577.23 420.077 577.469C420.367 577.707 420.844 577.903 421.509 578.057L423.742 578.534C424.981 578.801 425.901 579.224 426.504 579.804C427.112 580.384 427.418 581.142 427.424 582.08C427.418 582.903 427.177 583.631 426.7 584.261C426.228 584.886 425.572 585.375 424.731 585.727C423.89 586.08 422.924 586.256 421.833 586.256C420.231 586.256 418.941 585.92 417.964 585.25C416.987 584.574 416.404 583.634 416.217 582.429L419.225 582.139C419.362 582.73 419.651 583.176 420.094 583.477C420.538 583.778 421.114 583.929 421.825 583.929C422.558 583.929 423.146 583.778 423.589 583.477C424.038 583.176 424.262 582.804 424.262 582.361C424.262 581.986 424.117 581.676 423.827 581.432C423.543 581.187 423.1 581 422.498 580.869L420.265 580.401C419.009 580.139 418.08 579.699 417.478 579.08C416.876 578.455 416.577 577.665 416.583 576.71C416.577 575.903 416.796 575.205 417.239 574.614C417.688 574.017 418.31 573.557 419.106 573.233C419.907 572.903 420.83 572.739 421.876 572.739C423.41 572.739 424.617 573.065 425.498 573.719C426.384 574.372 426.933 575.256 427.143 576.369ZM432.781 581.892L432.772 578.168H433.266L437.971 572.909H441.576L435.789 579.352H435.15L432.781 581.892ZM429.968 586V568.545H433.053V586H429.968ZM438.184 586L433.923 580.043L436.002 577.869L441.874 586H438.184ZM448.888 586.256C447.576 586.256 446.442 585.983 445.488 585.438C444.539 584.886 443.809 584.108 443.298 583.102C442.786 582.091 442.531 580.901 442.531 579.531C442.531 578.185 442.786 577.003 443.298 575.986C443.815 574.963 444.536 574.168 445.462 573.599C446.388 573.026 447.477 572.739 448.727 572.739C449.533 572.739 450.295 572.869 451.011 573.131C451.732 573.386 452.369 573.784 452.92 574.324C453.477 574.864 453.914 575.551 454.232 576.386C454.55 577.216 454.71 578.205 454.71 579.352V580.298H443.979V578.219H451.752C451.746 577.628 451.619 577.102 451.369 576.642C451.119 576.176 450.769 575.81 450.32 575.543C449.877 575.276 449.36 575.142 448.769 575.142C448.138 575.142 447.585 575.295 447.107 575.602C446.63 575.903 446.258 576.301 445.991 576.795C445.729 577.284 445.596 577.821 445.59 578.406V580.222C445.59 580.983 445.729 581.636 446.008 582.182C446.286 582.722 446.675 583.136 447.175 583.426C447.675 583.71 448.261 583.852 448.931 583.852C449.38 583.852 449.786 583.79 450.15 583.665C450.513 583.534 450.829 583.344 451.096 583.094C451.363 582.844 451.565 582.534 451.701 582.165L454.582 582.489C454.4 583.25 454.053 583.915 453.542 584.483C453.036 585.045 452.388 585.483 451.599 585.795C450.809 586.102 449.906 586.256 448.888 586.256ZM447.457 571.188L449.366 567.293H452.383L449.766 571.188H447.457ZM463.273 586V572.909H466.358V586H463.273ZM464.824 571.051C464.335 571.051 463.915 570.889 463.562 570.565C463.21 570.236 463.034 569.841 463.034 569.381C463.034 568.915 463.21 568.52 463.562 568.196C463.915 567.866 464.335 567.702 464.824 567.702C465.318 567.702 465.739 567.866 466.085 568.196C466.438 568.52 466.614 568.915 466.614 569.381C466.614 569.841 466.438 570.236 466.085 570.565C465.739 570.889 465.318 571.051 464.824 571.051ZM472.616 578.33V586H469.531V568.545H472.548V575.134H472.701C473.008 574.395 473.482 573.812 474.124 573.386C474.772 572.955 475.596 572.739 476.596 572.739C477.505 572.739 478.298 572.929 478.974 573.31C479.65 573.69 480.173 574.247 480.542 574.98C480.917 575.713 481.104 576.608 481.104 577.665V586H478.019V578.142C478.019 577.261 477.792 576.577 477.337 576.088C476.888 575.594 476.258 575.347 475.445 575.347C474.9 575.347 474.411 575.466 473.979 575.705C473.553 575.937 473.218 576.276 472.974 576.719C472.735 577.162 472.616 577.699 472.616 578.33ZM484.249 586V572.909H487.241V575.091H487.377C487.616 574.335 488.025 573.753 488.604 573.344C489.19 572.929 489.857 572.722 490.607 572.722C490.778 572.722 490.968 572.73 491.178 572.747C491.394 572.759 491.573 572.778 491.715 572.807V575.645C491.585 575.599 491.377 575.56 491.093 575.526C490.815 575.486 490.545 575.466 490.283 575.466C489.721 575.466 489.215 575.588 488.766 575.832C488.323 576.071 487.974 576.403 487.718 576.83C487.462 577.256 487.335 577.747 487.335 578.304V586H484.249ZM493.765 586V572.909H496.85V586H493.765ZM495.316 571.051C494.827 571.051 494.407 570.889 494.055 570.565C493.702 570.236 493.526 569.841 493.526 569.381C493.526 568.915 493.702 568.52 494.055 568.196C494.407 567.866 494.827 567.702 495.316 567.702C495.81 567.702 496.231 567.866 496.577 568.196C496.93 568.52 497.106 568.915 497.106 569.381C497.106 569.841 496.93 570.236 496.577 570.565C496.231 570.889 495.81 571.051 495.316 571.051ZM510.369 576.369L507.557 576.676C507.477 576.392 507.338 576.125 507.139 575.875C506.946 575.625 506.685 575.423 506.355 575.27C506.026 575.116 505.622 575.04 505.145 575.04C504.503 575.04 503.963 575.179 503.526 575.457C503.094 575.736 502.881 576.097 502.886 576.54C502.881 576.92 503.02 577.23 503.304 577.469C503.594 577.707 504.071 577.903 504.736 578.057L506.969 578.534C508.207 578.801 509.128 579.224 509.73 579.804C510.338 580.384 510.645 581.142 510.651 582.08C510.645 582.903 510.403 583.631 509.926 584.261C509.455 584.886 508.798 585.375 507.957 585.727C507.116 586.08 506.151 586.256 505.06 586.256C503.457 586.256 502.168 585.92 501.19 585.25C500.213 584.574 499.631 583.634 499.443 582.429L502.452 582.139C502.588 582.73 502.878 583.176 503.321 583.477C503.764 583.778 504.341 583.929 505.051 583.929C505.784 583.929 506.372 583.778 506.815 583.477C507.264 583.176 507.489 582.804 507.489 582.361C507.489 581.986 507.344 581.676 507.054 581.432C506.77 581.187 506.327 581 505.724 580.869L503.491 580.401C502.236 580.139 501.307 579.699 500.705 579.08C500.102 578.455 499.804 577.665 499.81 576.71C499.804 575.903 500.023 575.205 500.466 574.614C500.915 574.017 501.537 573.557 502.332 573.233C503.134 572.903 504.057 572.739 505.102 572.739C506.636 572.739 507.844 573.065 508.724 573.719C509.611 574.372 510.159 575.256 510.369 576.369ZM516.007 581.892L515.999 578.168H516.493L521.197 572.909H524.803L519.016 579.352H518.376L516.007 581.892ZM513.195 586V568.545H516.28V586H513.195ZM521.411 586L517.149 580.043L519.229 577.869L525.101 586H521.411ZM532.03 586.256C530.751 586.256 529.643 585.974 528.706 585.412C527.768 584.849 527.041 584.062 526.524 583.051C526.013 582.04 525.757 580.858 525.757 579.506C525.757 578.153 526.013 576.969 526.524 575.952C527.041 574.935 527.768 574.145 528.706 573.582C529.643 573.02 530.751 572.739 532.03 572.739C533.308 572.739 534.416 573.02 535.354 573.582C536.291 574.145 537.016 574.935 537.527 575.952C538.044 576.969 538.303 578.153 538.303 579.506C538.303 580.858 538.044 582.04 537.527 583.051C537.016 584.062 536.291 584.849 535.354 585.412C534.416 585.974 533.308 586.256 532.03 586.256ZM532.047 583.784C532.74 583.784 533.32 583.594 533.786 583.213C534.251 582.827 534.598 582.31 534.825 581.662C535.058 581.014 535.175 580.293 535.175 579.497C535.175 578.696 535.058 577.972 534.825 577.324C534.598 576.67 534.251 576.151 533.786 575.764C533.32 575.378 532.74 575.185 532.047 575.185C531.337 575.185 530.746 575.378 530.274 575.764C529.808 576.151 529.459 576.67 529.226 577.324C528.999 577.972 528.885 578.696 528.885 579.497C528.885 580.293 528.999 581.014 529.226 581.662C529.459 582.31 529.808 582.827 530.274 583.213C530.746 583.594 531.337 583.784 532.047 583.784Z" fill="#081C41"/>
<path d="M577.78 744V726.545H584.326C585.667 726.545 586.792 726.795 587.701 727.295C588.615 727.795 589.306 728.483 589.772 729.358C590.243 730.227 590.479 731.216 590.479 732.324C590.479 733.443 590.243 734.437 589.772 735.307C589.3 736.176 588.604 736.861 587.684 737.361C586.763 737.855 585.63 738.102 584.283 738.102H579.945V735.503H583.857C584.641 735.503 585.283 735.366 585.783 735.094C586.283 734.821 586.652 734.446 586.891 733.969C587.135 733.491 587.257 732.943 587.257 732.324C587.257 731.705 587.135 731.159 586.891 730.688C586.652 730.216 586.28 729.849 585.775 729.588C585.275 729.321 584.63 729.188 583.84 729.188H580.942V744H577.78ZM598.612 744.256C597.333 744.256 596.225 743.974 595.288 743.412C594.35 742.849 593.623 742.062 593.106 741.051C592.595 740.04 592.339 738.858 592.339 737.506C592.339 736.153 592.595 734.969 593.106 733.952C593.623 732.935 594.35 732.145 595.288 731.582C596.225 731.02 597.333 730.739 598.612 730.739C599.89 730.739 600.998 731.02 601.936 731.582C602.873 732.145 603.598 732.935 604.109 733.952C604.626 734.969 604.885 736.153 604.885 737.506C604.885 738.858 604.626 740.04 604.109 741.051C603.598 742.062 602.873 742.849 601.936 743.412C600.998 743.974 599.89 744.256 598.612 744.256ZM598.629 741.784C599.322 741.784 599.902 741.594 600.368 741.213C600.833 740.827 601.18 740.31 601.407 739.662C601.64 739.014 601.757 738.293 601.757 737.497C601.757 736.696 601.64 735.972 601.407 735.324C601.18 734.67 600.833 734.151 600.368 733.764C599.902 733.378 599.322 733.185 598.629 733.185C597.919 733.185 597.328 733.378 596.856 733.764C596.39 734.151 596.041 734.67 595.808 735.324C595.581 735.972 595.467 736.696 595.467 737.497C595.467 738.293 595.581 739.014 595.808 739.662C596.041 740.31 596.39 740.827 596.856 741.213C597.328 741.594 597.919 741.784 598.629 741.784ZM610.588 726.545V744H607.503V726.545H610.588ZM613.761 744V730.909H616.846V744H613.761ZM615.312 729.051C614.824 729.051 614.403 728.889 614.051 728.565C613.699 728.236 613.522 727.841 613.522 727.381C613.522 726.915 613.699 726.52 614.051 726.196C614.403 725.866 614.824 725.702 615.312 725.702C615.806 725.702 616.227 725.866 616.574 726.196C616.926 726.52 617.102 726.915 617.102 727.381C617.102 727.841 616.926 728.236 616.574 728.565C616.227 728.889 615.806 729.051 615.312 729.051ZM622.831 739.892L622.823 736.168H623.317L628.022 730.909H631.627L625.84 737.352H625.201L622.831 739.892ZM620.019 744V726.545H623.104V744H620.019ZM628.235 744L623.973 738.043L626.053 735.869L631.925 744H628.235ZM636.768 726.545V744H633.683V726.545H636.768ZM639.941 744V730.909H643.026V744H639.941ZM641.492 729.051C641.003 729.051 640.583 728.889 640.23 728.565C639.878 728.236 639.702 727.841 639.702 727.381C639.702 726.915 639.878 726.52 640.23 726.196C640.583 725.866 641.003 725.702 641.492 725.702C641.986 725.702 642.407 725.866 642.753 726.196C643.105 726.52 643.282 726.915 643.282 727.381C643.282 727.841 643.105 728.236 642.753 728.565C642.407 728.889 641.986 729.051 641.492 729.051ZM649.284 736.33V744H646.199V730.909H649.147V733.134H649.301C649.602 732.401 650.082 731.818 650.741 731.386C651.406 730.955 652.227 730.739 653.204 730.739C654.108 730.739 654.895 730.932 655.565 731.318C656.241 731.705 656.764 732.264 657.133 732.997C657.508 733.73 657.693 734.619 657.687 735.665V744H654.602V736.142C654.602 735.267 654.375 734.582 653.92 734.088C653.471 733.594 652.849 733.347 652.054 733.347C651.514 733.347 651.034 733.466 650.613 733.705C650.199 733.937 649.872 734.276 649.633 734.719C649.4 735.162 649.284 735.699 649.284 736.33ZM660.824 744V730.909H663.909V744H660.824ZM662.375 729.051C661.886 729.051 661.466 728.889 661.113 728.565C660.761 728.236 660.585 727.841 660.585 727.381C660.585 726.915 660.761 726.52 661.113 726.196C661.466 725.866 661.886 725.702 662.375 725.702C662.869 725.702 663.289 725.866 663.636 726.196C663.988 726.52 664.164 726.915 664.164 727.381C664.164 727.841 663.988 728.236 663.636 728.565C663.289 728.889 662.869 729.051 662.375 729.051ZM669.894 739.892L669.885 736.168H670.38L675.084 730.909H678.689L672.902 737.352H672.263L669.894 739.892ZM667.081 744V726.545H670.167V744H667.081ZM675.297 744L671.036 738.043L673.115 735.869L678.988 744H675.297ZM684.512 744.264C683.683 744.264 682.936 744.116 682.271 743.821C681.612 743.52 681.089 743.077 680.703 742.491C680.322 741.906 680.132 741.185 680.132 740.327C680.132 739.588 680.268 738.977 680.541 738.494C680.814 738.011 681.186 737.625 681.657 737.335C682.129 737.045 682.66 736.827 683.251 736.679C683.848 736.526 684.464 736.415 685.1 736.347C685.868 736.267 686.49 736.196 686.967 736.134C687.444 736.065 687.791 735.963 688.007 735.827C688.228 735.685 688.339 735.466 688.339 735.17V735.119C688.339 734.477 688.149 733.98 687.768 733.628C687.387 733.276 686.839 733.099 686.123 733.099C685.368 733.099 684.768 733.264 684.325 733.594C683.887 733.923 683.592 734.312 683.439 734.761L680.558 734.352C680.785 733.557 681.16 732.892 681.683 732.358C682.206 731.818 682.845 731.415 683.6 731.148C684.356 730.875 685.191 730.739 686.106 730.739C686.737 730.739 687.365 730.812 687.99 730.96C688.615 731.108 689.186 731.352 689.703 731.693C690.22 732.028 690.635 732.486 690.947 733.065C691.265 733.645 691.424 734.369 691.424 735.239V744H688.458V742.202H688.356C688.169 742.565 687.904 742.906 687.564 743.224C687.228 743.537 686.805 743.79 686.294 743.983C685.788 744.17 685.194 744.264 684.512 744.264ZM685.314 741.997C685.933 741.997 686.47 741.875 686.924 741.631C687.379 741.381 687.728 741.051 687.973 740.642C688.223 740.233 688.348 739.787 688.348 739.304V737.761C688.251 737.841 688.086 737.915 687.853 737.983C687.626 738.051 687.37 738.111 687.086 738.162C686.802 738.213 686.521 738.259 686.243 738.298C685.964 738.338 685.723 738.372 685.518 738.401C685.058 738.463 684.646 738.565 684.282 738.707C683.919 738.849 683.632 739.048 683.422 739.304C683.211 739.554 683.106 739.878 683.106 740.276C683.106 740.844 683.314 741.273 683.728 741.562C684.143 741.852 684.672 741.997 685.314 741.997Z" fill="#B8AD7E"/>
<path d="M869.417 699V681.545H876.099C877.36 681.545 878.408 681.744 879.244 682.142C880.085 682.534 880.712 683.071 881.127 683.753C881.548 684.435 881.758 685.207 881.758 686.071C881.758 686.781 881.621 687.389 881.349 687.895C881.076 688.395 880.71 688.801 880.249 689.114C879.789 689.426 879.275 689.651 878.707 689.787V689.957C879.326 689.991 879.92 690.182 880.488 690.528C881.062 690.869 881.531 691.352 881.894 691.977C882.258 692.602 882.44 693.358 882.44 694.244C882.44 695.148 882.221 695.96 881.783 696.682C881.346 697.398 880.687 697.963 879.806 698.378C878.925 698.793 877.817 699 876.482 699H869.417ZM872.579 696.358H875.979C877.127 696.358 877.954 696.139 878.46 695.702C878.971 695.259 879.227 694.69 879.227 693.997C879.227 693.48 879.099 693.014 878.843 692.599C878.587 692.179 878.224 691.849 877.752 691.611C877.281 691.366 876.718 691.244 876.065 691.244H872.579V696.358ZM872.579 688.969H875.707C876.252 688.969 876.744 688.869 877.181 688.67C877.619 688.466 877.962 688.179 878.212 687.81C878.468 687.435 878.596 686.991 878.596 686.48C878.596 685.804 878.357 685.247 877.88 684.81C877.408 684.372 876.707 684.153 875.775 684.153H872.579V688.969ZM893.398 693.494V685.909H896.483V699H893.491V696.673H893.355C893.06 697.406 892.574 698.006 891.898 698.472C891.227 698.937 890.401 699.17 889.418 699.17C888.56 699.17 887.801 698.98 887.142 698.599C886.489 698.213 885.977 697.653 885.608 696.92C885.239 696.182 885.054 695.29 885.054 694.244V685.909H888.139V693.767C888.139 694.597 888.366 695.256 888.821 695.744C889.276 696.233 889.872 696.477 890.611 696.477C891.065 696.477 891.506 696.366 891.932 696.145C892.358 695.923 892.707 695.594 892.98 695.156C893.259 694.713 893.398 694.159 893.398 693.494ZM904.513 699.23C903.485 699.23 902.565 698.966 901.752 698.438C900.94 697.909 900.298 697.142 899.826 696.136C899.354 695.131 899.119 693.909 899.119 692.472C899.119 691.017 899.357 689.79 899.835 688.79C900.317 687.784 900.968 687.026 901.786 686.514C902.604 685.997 903.516 685.739 904.522 685.739C905.289 685.739 905.92 685.869 906.414 686.131C906.908 686.386 907.3 686.696 907.59 687.06C907.88 687.418 908.104 687.756 908.263 688.074H908.391V681.545H911.485V699H908.451V696.938H908.263C908.104 697.256 907.874 697.594 907.573 697.952C907.272 698.304 906.874 698.605 906.38 698.855C905.886 699.105 905.263 699.23 904.513 699.23ZM905.374 696.699C906.028 696.699 906.585 696.523 907.045 696.17C907.505 695.812 907.854 695.315 908.093 694.679C908.332 694.043 908.451 693.301 908.451 692.455C908.451 691.608 908.332 690.872 908.093 690.247C907.86 689.622 907.513 689.136 907.053 688.79C906.599 688.443 906.039 688.27 905.374 688.27C904.687 688.27 904.113 688.449 903.653 688.807C903.192 689.165 902.846 689.659 902.613 690.29C902.38 690.92 902.263 691.642 902.263 692.455C902.263 693.273 902.38 694.003 902.613 694.645C902.852 695.281 903.201 695.784 903.661 696.153C904.127 696.517 904.698 696.699 905.374 696.699ZM920.483 699.256C919.205 699.256 918.097 698.974 917.159 698.412C916.222 697.849 915.494 697.062 914.977 696.051C914.466 695.04 914.21 693.858 914.21 692.506C914.21 691.153 914.466 689.969 914.977 688.952C915.494 687.935 916.222 687.145 917.159 686.582C918.097 686.02 919.205 685.739 920.483 685.739C921.761 685.739 922.869 686.02 923.807 686.582C924.744 687.145 925.469 687.935 925.98 688.952C926.497 689.969 926.756 691.153 926.756 692.506C926.756 693.858 926.497 695.04 925.98 696.051C925.469 697.062 924.744 697.849 923.807 698.412C922.869 698.974 921.761 699.256 920.483 699.256ZM920.5 696.784C921.193 696.784 921.773 696.594 922.239 696.213C922.705 695.827 923.051 695.31 923.278 694.662C923.511 694.014 923.628 693.293 923.628 692.497C923.628 691.696 923.511 690.972 923.278 690.324C923.051 689.67 922.705 689.151 922.239 688.764C921.773 688.378 921.193 688.185 920.5 688.185C919.79 688.185 919.199 688.378 918.727 688.764C918.261 689.151 917.912 689.67 917.679 690.324C917.452 690.972 917.338 691.696 917.338 692.497C917.338 693.293 917.452 694.014 917.679 694.662C917.912 695.31 918.261 695.827 918.727 696.213C919.199 696.594 919.79 696.784 920.5 696.784ZM940.622 685.909L935.96 699H932.551L927.889 685.909H931.179L934.188 695.634H934.324L937.341 685.909H940.622ZM946.149 699.264C945.32 699.264 944.572 699.116 943.908 698.821C943.249 698.52 942.726 698.077 942.339 697.491C941.959 696.906 941.768 696.185 941.768 695.327C941.768 694.588 941.905 693.977 942.178 693.494C942.45 693.011 942.822 692.625 943.294 692.335C943.766 692.045 944.297 691.827 944.888 691.679C945.484 691.526 946.101 691.415 946.737 691.347C947.504 691.267 948.126 691.196 948.604 691.134C949.081 691.065 949.428 690.963 949.643 690.827C949.865 690.685 949.976 690.466 949.976 690.17V690.119C949.976 689.477 949.786 688.98 949.405 688.628C949.024 688.276 948.476 688.099 947.76 688.099C947.004 688.099 946.405 688.264 945.962 688.594C945.524 688.923 945.229 689.312 945.075 689.761L942.195 689.352C942.422 688.557 942.797 687.892 943.32 687.358C943.842 686.818 944.482 686.415 945.237 686.148C945.993 685.875 946.828 685.739 947.743 685.739C948.374 685.739 949.001 685.812 949.626 685.96C950.251 686.108 950.822 686.352 951.339 686.693C951.857 687.028 952.271 687.486 952.584 688.065C952.902 688.645 953.061 689.369 953.061 690.239V699H950.095V697.202H949.993C949.805 697.565 949.541 697.906 949.2 698.224C948.865 698.537 948.442 698.79 947.93 698.983C947.425 699.17 946.831 699.264 946.149 699.264ZM946.95 696.997C947.57 696.997 948.107 696.875 948.561 696.631C949.016 696.381 949.365 696.051 949.609 695.642C949.859 695.233 949.984 694.787 949.984 694.304V692.761C949.888 692.841 949.723 692.915 949.49 692.983C949.263 693.051 949.007 693.111 948.723 693.162C948.439 693.213 948.158 693.259 947.879 693.298C947.601 693.338 947.359 693.372 947.155 693.401C946.695 693.463 946.283 693.565 945.919 693.707C945.555 693.849 945.268 694.048 945.058 694.304C944.848 694.554 944.743 694.878 944.743 695.276C944.743 695.844 944.95 696.273 945.365 696.562C945.78 696.852 946.308 696.997 946.95 696.997ZM962.253 699V681.545H968.935C970.196 681.545 971.244 681.744 972.08 682.142C972.92 682.534 973.548 683.071 973.963 683.753C974.384 684.435 974.594 685.207 974.594 686.071C974.594 686.781 974.457 687.389 974.185 687.895C973.912 688.395 973.545 688.801 973.085 689.114C972.625 689.426 972.111 689.651 971.543 689.787V689.957C972.162 689.991 972.756 690.182 973.324 690.528C973.898 690.869 974.366 691.352 974.73 691.977C975.094 692.602 975.276 693.358 975.276 694.244C975.276 695.148 975.057 695.96 974.619 696.682C974.182 697.398 973.523 697.963 972.642 698.378C971.761 698.793 970.653 699 969.318 699H962.253ZM965.415 696.358H968.815C969.963 696.358 970.79 696.139 971.295 695.702C971.807 695.259 972.062 694.69 972.062 693.997C972.062 693.48 971.935 693.014 971.679 692.599C971.423 692.179 971.06 691.849 970.588 691.611C970.116 691.366 969.554 691.244 968.901 691.244H965.415V696.358ZM965.415 688.969H968.543C969.088 688.969 969.58 688.869 970.017 688.67C970.455 688.466 970.798 688.179 971.048 687.81C971.304 687.435 971.432 686.991 971.432 686.48C971.432 685.804 971.193 685.247 970.716 684.81C970.244 684.372 969.543 684.153 968.611 684.153H965.415V688.969Z" fill="#B8AD7E"/>
<path d="M649.5 346.5C628.667 329.833 586.6 296 585 294L472.5 429L538 478.5L544.5 470L585 499L680 389.5L643 360L649.5 346.5Z" fill="#B8AD7E"/>
<path d="M1019 388.107C980.942 320.421 903.96 183.839 900.5 179L809.679 218.748L788.055 253.311L826.113 326.757L782 344.903L826.113 426.99L870.226 411.437L892.715 446L1019 388.107Z" fill="#081C41"/>
<path d="M836.155 350V332.545H842.701C844.042 332.545 845.167 332.795 846.076 333.295C846.99 333.795 847.681 334.483 848.147 335.358C848.618 336.227 848.854 337.216 848.854 338.324C848.854 339.443 848.618 340.437 848.147 341.307C847.675 342.176 846.979 342.861 846.059 343.361C845.138 343.855 844.005 344.102 842.658 344.102H838.32V341.503H842.232C843.016 341.503 843.658 341.366 844.158 341.094C844.658 340.821 845.027 340.446 845.266 339.969C845.51 339.491 845.632 338.943 845.632 338.324C845.632 337.705 845.51 337.159 845.266 336.688C845.027 336.216 844.655 335.849 844.15 335.588C843.65 335.321 843.005 335.188 842.215 335.188H839.317V350H836.155ZM854.997 350.264C854.167 350.264 853.42 350.116 852.755 349.821C852.096 349.52 851.574 349.077 851.187 348.491C850.806 347.906 850.616 347.185 850.616 346.327C850.616 345.588 850.752 344.977 851.025 344.494C851.298 344.011 851.67 343.625 852.142 343.335C852.613 343.045 853.145 342.827 853.735 342.679C854.332 342.526 854.949 342.415 855.585 342.347C856.352 342.267 856.974 342.196 857.451 342.134C857.929 342.065 858.275 341.963 858.491 341.827C858.713 341.685 858.824 341.466 858.824 341.17V341.119C858.824 340.477 858.633 339.98 858.252 339.628C857.872 339.276 857.324 339.099 856.608 339.099C855.852 339.099 855.252 339.264 854.809 339.594C854.372 339.923 854.076 340.312 853.923 340.761L851.042 340.352C851.27 339.557 851.645 338.892 852.167 338.358C852.69 337.818 853.329 337.415 854.085 337.148C854.841 336.875 855.676 336.739 856.591 336.739C857.221 336.739 857.849 336.812 858.474 336.96C859.099 337.108 859.67 337.352 860.187 337.693C860.704 338.028 861.119 338.486 861.431 339.065C861.75 339.645 861.909 340.369 861.909 341.239V350H858.943V348.202H858.841C858.653 348.565 858.389 348.906 858.048 349.224C857.713 349.537 857.289 349.79 856.778 349.983C856.272 350.17 855.679 350.264 854.997 350.264ZM855.798 347.997C856.417 347.997 856.954 347.875 857.409 347.631C857.863 347.381 858.213 347.051 858.457 346.642C858.707 346.233 858.832 345.787 858.832 345.304V343.761C858.735 343.841 858.571 343.915 858.338 343.983C858.11 344.051 857.855 344.111 857.571 344.162C857.287 344.213 857.005 344.259 856.727 344.298C856.449 344.338 856.207 344.372 856.002 344.401C855.542 344.463 855.13 344.565 854.767 344.707C854.403 344.849 854.116 345.048 853.906 345.304C853.696 345.554 853.591 345.878 853.591 346.276C853.591 346.844 853.798 347.273 854.213 347.562C854.627 347.852 855.156 347.997 855.798 347.997ZM865.011 350V336.909H868.002V339.091H868.139C868.377 338.335 868.787 337.753 869.366 337.344C869.951 336.929 870.619 336.722 871.369 336.722C871.539 336.722 871.73 336.73 871.94 336.747C872.156 336.759 872.335 336.778 872.477 336.807V339.645C872.346 339.599 872.139 339.56 871.855 339.526C871.576 339.486 871.306 339.466 871.045 339.466C870.483 339.466 869.977 339.588 869.528 339.832C869.085 340.071 868.735 340.403 868.48 340.83C868.224 341.256 868.096 341.747 868.096 342.304V350H865.011ZM877.339 345.892L877.331 342.168H877.825L882.529 336.909H886.135L880.348 343.352H879.708L877.339 345.892ZM874.527 350V332.545H877.612V350H874.527ZM882.743 350L878.481 344.043L880.561 341.869L886.433 350H882.743ZM893.362 350.256C892.083 350.256 890.975 349.974 890.038 349.412C889.1 348.849 888.373 348.062 887.856 347.051C887.345 346.04 887.089 344.858 887.089 343.506C887.089 342.153 887.345 340.969 887.856 339.952C888.373 338.935 889.1 338.145 890.038 337.582C890.975 337.02 892.083 336.739 893.362 336.739C894.64 336.739 895.748 337.02 896.686 337.582C897.623 338.145 898.348 338.935 898.859 339.952C899.376 340.969 899.635 342.153 899.635 343.506C899.635 344.858 899.376 346.04 898.859 347.051C898.348 348.062 897.623 348.849 896.686 349.412C895.748 349.974 894.64 350.256 893.362 350.256ZM893.379 347.784C894.072 347.784 894.652 347.594 895.118 347.213C895.583 346.827 895.93 346.31 896.157 345.662C896.39 345.014 896.507 344.293 896.507 343.497C896.507 342.696 896.39 341.972 896.157 341.324C895.93 340.67 895.583 340.151 895.118 339.764C894.652 339.378 894.072 339.185 893.379 339.185C892.669 339.185 892.078 339.378 891.606 339.764C891.14 340.151 890.791 340.67 890.558 341.324C890.331 341.972 890.217 342.696 890.217 343.497C890.217 344.293 890.331 345.014 890.558 345.662C890.791 346.31 891.14 346.827 891.606 347.213C892.078 347.594 892.669 347.784 893.379 347.784ZM913.501 336.909L908.839 350H905.43L900.768 336.909H904.058L907.066 346.634H907.203L910.22 336.909H913.501ZM919.028 350.264C918.199 350.264 917.451 350.116 916.787 349.821C916.127 349.52 915.605 349.077 915.218 348.491C914.838 347.906 914.647 347.185 914.647 346.327C914.647 345.588 914.784 344.977 915.056 344.494C915.329 344.011 915.701 343.625 916.173 343.335C916.645 343.045 917.176 342.827 917.767 342.679C918.363 342.526 918.98 342.415 919.616 342.347C920.383 342.267 921.005 342.196 921.483 342.134C921.96 342.065 922.306 341.963 922.522 341.827C922.744 341.685 922.855 341.466 922.855 341.17V341.119C922.855 340.477 922.664 339.98 922.284 339.628C921.903 339.276 921.355 339.099 920.639 339.099C919.883 339.099 919.284 339.264 918.841 339.594C918.403 339.923 918.108 340.312 917.954 340.761L915.074 340.352C915.301 339.557 915.676 338.892 916.199 338.358C916.721 337.818 917.36 337.415 918.116 337.148C918.872 336.875 919.707 336.739 920.622 336.739C921.252 336.739 921.88 336.812 922.505 336.96C923.13 337.108 923.701 337.352 924.218 337.693C924.735 338.028 925.15 338.486 925.463 339.065C925.781 339.645 925.94 340.369 925.94 341.239V350H922.974V348.202H922.872C922.684 348.565 922.42 348.906 922.079 349.224C921.744 349.537 921.321 349.79 920.809 349.983C920.304 350.17 919.71 350.264 919.028 350.264ZM919.829 347.997C920.449 347.997 920.985 347.875 921.44 347.631C921.895 347.381 922.244 347.051 922.488 346.642C922.738 346.233 922.863 345.787 922.863 345.304V343.761C922.767 343.841 922.602 343.915 922.369 343.983C922.142 344.051 921.886 344.111 921.602 344.162C921.318 344.213 921.037 344.259 920.758 344.298C920.48 344.338 920.238 344.372 920.034 344.401C919.574 344.463 919.162 344.565 918.798 344.707C918.434 344.849 918.147 345.048 917.937 345.304C917.727 345.554 917.622 345.878 917.622 346.276C917.622 346.844 917.829 347.273 918.244 347.562C918.659 347.852 919.187 347.997 919.829 347.997ZM934.752 350.256C933.446 350.256 932.324 349.969 931.386 349.395C930.454 348.821 929.735 348.028 929.23 347.017C928.73 346 928.48 344.83 928.48 343.506C928.48 342.176 928.735 341.003 929.247 339.986C929.758 338.963 930.48 338.168 931.412 337.599C932.349 337.026 933.457 336.739 934.735 336.739C935.798 336.739 936.738 336.935 937.556 337.327C938.38 337.713 939.037 338.261 939.525 338.972C940.014 339.676 940.292 340.5 940.36 341.443H937.412C937.292 340.812 937.008 340.287 936.559 339.866C936.116 339.44 935.522 339.227 934.778 339.227C934.147 339.227 933.593 339.398 933.116 339.739C932.639 340.074 932.267 340.557 932 341.188C931.738 341.818 931.608 342.574 931.608 343.455C931.608 344.347 931.738 345.114 932 345.756C932.261 346.392 932.627 346.884 933.099 347.23C933.576 347.571 934.136 347.741 934.778 347.741C935.233 347.741 935.639 347.656 935.997 347.486C936.36 347.31 936.664 347.057 936.909 346.727C937.153 346.398 937.321 345.997 937.412 345.526H940.36C940.287 346.452 940.014 347.273 939.542 347.989C939.071 348.699 938.429 349.256 937.616 349.659C936.804 350.057 935.849 350.256 934.752 350.256ZM942.894 350V336.909H945.979V350H942.894ZM943.26 335.188L945.169 331.293H948.186L945.57 335.188H943.26ZM871.814 379.23C870.786 379.23 869.865 378.966 869.053 378.438C868.24 377.909 867.598 377.142 867.127 376.136C866.655 375.131 866.419 373.909 866.419 372.472C866.419 371.017 866.658 369.79 867.135 368.79C867.618 367.784 868.269 367.026 869.087 366.514C869.905 365.997 870.817 365.739 871.823 365.739C872.59 365.739 873.221 365.869 873.715 366.131C874.209 366.386 874.601 366.696 874.891 367.06C875.181 367.418 875.405 367.756 875.564 368.074H875.692V361.545H878.786V379H875.752V376.938H875.564C875.405 377.256 875.175 377.594 874.874 377.952C874.573 378.304 874.175 378.605 873.681 378.855C873.186 379.105 872.564 379.23 871.814 379.23ZM872.675 376.699C873.328 376.699 873.885 376.523 874.346 376.17C874.806 375.812 875.155 375.315 875.394 374.679C875.632 374.043 875.752 373.301 875.752 372.455C875.752 371.608 875.632 370.872 875.394 370.247C875.161 369.622 874.814 369.136 874.354 368.79C873.9 368.443 873.34 368.27 872.675 368.27C871.988 368.27 871.414 368.449 870.953 368.807C870.493 369.165 870.147 369.659 869.914 370.29C869.681 370.92 869.564 371.642 869.564 372.455C869.564 373.273 869.681 374.003 869.914 374.645C870.152 375.281 870.502 375.784 870.962 376.153C871.428 376.517 871.999 376.699 872.675 376.699ZM887.784 379.256C886.505 379.256 885.397 378.974 884.46 378.412C883.522 377.849 882.795 377.062 882.278 376.051C881.767 375.04 881.511 373.858 881.511 372.506C881.511 371.153 881.767 369.969 882.278 368.952C882.795 367.935 883.522 367.145 884.46 366.582C885.397 366.02 886.505 365.739 887.784 365.739C889.062 365.739 890.17 366.02 891.108 366.582C892.045 367.145 892.77 367.935 893.281 368.952C893.798 369.969 894.056 371.153 894.056 372.506C894.056 373.858 893.798 375.04 893.281 376.051C892.77 377.062 892.045 377.849 891.108 378.412C890.17 378.974 889.062 379.256 887.784 379.256ZM887.801 376.784C888.494 376.784 889.074 376.594 889.539 376.213C890.005 375.827 890.352 375.31 890.579 374.662C890.812 374.014 890.929 373.293 890.929 372.497C890.929 371.696 890.812 370.972 890.579 370.324C890.352 369.67 890.005 369.151 889.539 368.764C889.074 368.378 888.494 368.185 887.801 368.185C887.091 368.185 886.5 368.378 886.028 368.764C885.562 369.151 885.213 369.67 884.98 370.324C884.752 370.972 884.639 371.696 884.639 372.497C884.639 373.293 884.752 374.014 884.98 374.662C885.213 375.31 885.562 375.827 886.028 376.213C886.5 376.594 887.091 376.784 887.801 376.784ZM896.675 379V365.909H899.624V368.134H899.777C900.05 367.384 900.502 366.798 901.132 366.378C901.763 365.952 902.516 365.739 903.391 365.739C904.277 365.739 905.025 365.955 905.632 366.386C906.246 366.812 906.678 367.395 906.928 368.134H907.064C907.354 367.406 907.843 366.827 908.53 366.395C909.223 365.957 910.044 365.739 910.993 365.739C912.198 365.739 913.181 366.119 913.942 366.881C914.703 367.642 915.084 368.753 915.084 370.213V379H911.99V370.69C911.99 369.878 911.775 369.284 911.343 368.909C910.911 368.528 910.382 368.338 909.757 368.338C909.013 368.338 908.431 368.571 908.01 369.037C907.596 369.497 907.388 370.097 907.388 370.835V379H904.363V370.562C904.363 369.886 904.158 369.347 903.749 368.943C903.346 368.54 902.817 368.338 902.164 368.338C901.721 368.338 901.317 368.452 900.953 368.679C900.59 368.901 900.3 369.216 900.084 369.625C899.868 370.028 899.76 370.5 899.76 371.04V379H896.675Z" fill="#B8AD7E"/>
<path d="M788.5 254L724.5 326.5C720.667 328.964 709.4 331.814 695 323.5C680.6 315.186 627.667 272.369 603 252L809.5 0.5" stroke="#B8AD7E" stroke-width="2"/>
<path d="M893 446L884.5 457.5V495L1036.5 498C1037.83 523.667 1035.8 575 1017 575L1015.5 605.5" stroke="#B8AD7E" stroke-width="2"/>
<path d="M997 53.5L930 91L1073 342.5L1143 304.5L997 53.5Z" fill="#B8AD7E"/>
<path d="M719 268L655 217L836.5 5.5L900 57L719 268Z" fill="#B8AD7E"/>
<path d="M271 817.5L295 863.5M297 817.5L320 863.5M321 817.5L345.5 864.5M345 818L368.5 864.5M369 818.5L394 864.5M397 818.5L419 864.5M427.5 820L450.5 866M459.5 820L481.5 866M488 820L514 867.5M518.5 820L541 866M543 820L565 867.5M569.5 821C570.3 821.8 586.167 852.667 595 867.5" stroke="#B8AD7E" stroke-width="2"/>
<path d="M698 823L721.5 869M721.5 823L745.5 869M745.5 824L770.5 869M770.5 824L795 869M794 824L821 871M819.5 824L845 871M845 824L871 872M869.5 825L895.5 872M895.5 825L921.5 872" stroke="#B8AD7E" stroke-width="2"/>
<path d="M1018 498V533M993.5 497V533M975.5 497V533M954.5 497V533M933.5 495.5V533M914 495.5V531M890.5 495.5V531" stroke="#B8AD7E" stroke-width="2"/>
<path d="M451.696 499L440.115 512.245H463.278L451.696 499Z" fill="#C1B480"/>
<path d="M479.147 547.674C477.498 546.379 477.118 544.498 476.633 541.535C476.174 538.723 475.653 535.535 473.242 532.904C470.557 529.972 467.211 528.974 464.391 529.161V515.184H439V537.874H439.371V554.79H446.193V552.524H448.454H457.199V554.79H464.02V537.874H464.391V535.887C464.987 535.742 466.629 535.568 468.319 537.413C469.385 538.577 469.691 540.448 470.045 542.614C470.579 545.887 471.245 549.959 475.026 552.925C478.635 555.757 483.426 555.757 486 555.757V549.08C484.232 549.08 480.941 549.08 479.147 547.674ZM446.193 538.479H448.454H457.199V541.051H448.454H446.193V538.479ZM451.728 521.846C456.004 521.846 456.588 524.848 456.588 527.736V534.027H448.454H446.383V527.736C446.383 524.547 447.453 521.846 451.728 521.846ZM448.454 548.073H446.193V545.501H448.454H457.199V548.073H448.454Z" fill="#C1B480"/>
<path d="M628.619 676V688.329H616V699.722H628.619V712H640.328V699.722H653V688.329H640.328V676H628.619Z" fill="#B8AD7E"/>
<g clip-path="url(#clip0_959_5)">
<path d="M860.949 318.955H922" stroke="#C1B480" stroke-width="13.3221"/>
<path d="M913.12 298.229C913.015 297.923 912.644 297.686 912.334 297.686C910.991 297.686 909.647 297.686 908.305 297.686C907.995 297.686 907.624 297.923 907.518 298.229C907.416 298.527 907.339 298.794 907.288 299.044L904.596 291.596C904.153 290.368 902.977 289.543 901.672 289.543H881.088C879.782 289.543 878.607 290.368 878.162 291.596L875.471 299.046C875.42 298.794 875.344 298.527 875.241 298.229C875.136 297.923 874.764 297.686 874.454 297.686C873.112 297.686 871.768 297.686 870.424 297.686C870.115 297.686 869.744 297.923 869.639 298.229C869.23 299.416 869.231 300.097 869.639 301.286C869.744 301.59 870.115 301.827 870.425 301.827C871.768 301.827 873.112 301.827 874.454 301.827C874.458 301.827 874.462 301.827 874.466 301.827L874.406 301.996C873.584 302.268 872.991 303.042 872.991 303.956V310.192V310.706V317.609C872.991 318.157 873.435 318.602 873.983 318.602H878.98C879.529 318.602 879.973 318.157 879.973 317.609V312.773H902.785V317.609C902.785 318.157 903.229 318.602 903.778 318.602H908.776C909.324 318.602 909.769 318.157 909.769 317.609V310.706V310.192V303.956C909.769 303.042 909.175 302.269 908.354 301.995L908.293 301.827C908.297 301.827 908.3 301.827 908.304 301.827C909.647 301.827 910.99 301.827 912.333 301.827C912.644 301.827 913.015 301.59 913.119 301.286C913.529 300.097 913.528 299.416 913.12 298.229ZM881.467 293.198H901.288L904.429 301.888H878.327L881.467 293.198ZM882.021 308.011H877.84C876.943 308.011 876.216 307.284 876.216 306.388C876.216 305.49 876.943 304.763 877.84 304.763H882.021C882.918 304.763 883.644 305.49 883.644 306.388C883.644 307.284 882.917 308.011 882.021 308.011ZM904.919 308.011H900.738C899.841 308.011 899.113 307.284 899.113 306.388C899.113 305.49 899.841 304.763 900.738 304.763H904.919C905.815 304.763 906.542 305.49 906.542 306.388C906.542 307.284 905.815 308.011 904.919 308.011Z" fill="#C1B480"/>
<path d="M860.147 286.866L890.329 266.037L922 286.866H860.147Z" fill="#C1B480"/>
<path d="M865.659 286.865H860.147V320.825H865.659V286.865Z" fill="#C1B480"/>
<path d="M922 286.865H916.489V320.825H922V286.865Z" fill="#C1B480"/>
</g>
<circle cx="919" cy="473" r="15" fill="#B8AD7E"/>
<circle cx="705" cy="412" r="15" fill="#B8AD7E"/>
<circle cx="344.5" cy="584.5" r="11.5" fill="#B8AD7E"/>
<circle cx="464.5" cy="461.5" r="21.5" fill="#B8AD7E"/>
<circle cx="1028" cy="477" r="15" fill="#B8AD7E"/>
<path d="M1205 328.5L1058.5 397C1046.22 400.667 1027.02 417.3 1048.5 454.5C1069.98 491.7 1095.12 571.667 1105 607M1110.5 622.5L1139 710C1143.16 726.211 1161.28 756.006 1200.49 745.5C1239.7 734.994 1313.83 715.789 1346 707.5" stroke="#B8AD7E" stroke-width="2" stroke-dasharray="4 4"/>
<path d="M1017 27.5L906 102C896.37 107 883.289 127.7 908 170.5C932.71 213.3 995.296 329.333 1023.5 382C1027.83 391.208 1040.7 407.199 1057.5 397.5" stroke="#B8AD7E" stroke-width="2" stroke-dasharray="4 4"/>
<path d="M119.5 834.5C136.5 826.167 185.4 809.5 245 809.5C304.6 809.5 517.167 813.833 616 816C625.833 816.5 645.5 806.1 645.5 760.5C645.833 779.667 651.1 818 669.5 818C687.9 818 861.833 820 946.5 821C960.12 820.5 994.287 823.5 1022 839.5L1362 840.5" stroke="#B8AD7E" stroke-width="2" stroke-dasharray="4 4"/>
<path d="M636 662C633.833 650.114 622.8 622.473 596 607" stroke="#B8AD7E" stroke-width="2" stroke-dasharray="4 4"/>
<path d="M1038.05 921H1034.67L1040.82 903.545H1044.72L1050.88 921H1047.5L1042.84 907.125H1042.7L1038.05 921ZM1038.16 914.156H1047.36V916.696H1038.16V914.156ZM1061.38 915.494V907.909H1064.47V921H1061.48V918.673H1061.34C1061.04 919.406 1060.56 920.006 1059.88 920.472C1059.21 920.937 1058.38 921.17 1057.4 921.17C1056.54 921.17 1055.79 920.98 1055.13 920.599C1054.47 920.213 1053.96 919.653 1053.59 918.92C1053.22 918.182 1053.04 917.29 1053.04 916.244V907.909H1056.12V915.767C1056.12 916.597 1056.35 917.256 1056.81 917.744C1057.26 918.233 1057.86 918.477 1058.6 918.477C1059.05 918.477 1059.49 918.366 1059.92 918.145C1060.34 917.923 1060.69 917.594 1060.96 917.156C1061.24 916.713 1061.38 916.159 1061.38 915.494ZM1074.18 907.909V910.295H1066.65V907.909H1074.18ZM1068.51 904.773H1071.59V917.062C1071.59 917.477 1071.66 917.795 1071.78 918.017C1071.91 918.233 1072.08 918.381 1072.29 918.46C1072.5 918.54 1072.74 918.58 1072.99 918.58C1073.19 918.58 1073.36 918.565 1073.52 918.537C1073.69 918.509 1073.81 918.483 1073.9 918.46L1074.42 920.872C1074.25 920.929 1074.01 920.991 1073.71 921.06C1073.41 921.128 1073.04 921.168 1072.6 921.179C1071.83 921.202 1071.13 921.085 1070.51 920.83C1069.89 920.568 1069.4 920.165 1069.04 919.619C1068.68 919.074 1068.5 918.392 1068.51 917.574V904.773ZM1082.33 921.256C1081.05 921.256 1079.94 920.974 1079 920.412C1078.07 919.849 1077.34 919.062 1076.82 918.051C1076.31 917.04 1076.05 915.858 1076.05 914.506C1076.05 913.153 1076.31 911.969 1076.82 910.952C1077.34 909.935 1078.07 909.145 1079 908.582C1079.94 908.02 1081.05 907.739 1082.33 907.739C1083.61 907.739 1084.71 908.02 1085.65 908.582C1086.59 909.145 1087.31 909.935 1087.82 910.952C1088.34 911.969 1088.6 913.153 1088.6 914.506C1088.6 915.858 1088.34 917.04 1087.82 918.051C1087.31 919.062 1086.59 919.849 1085.65 920.412C1084.71 920.974 1083.61 921.256 1082.33 921.256ZM1082.34 918.784C1083.04 918.784 1083.62 918.594 1084.08 918.213C1084.55 917.827 1084.89 917.31 1085.12 916.662C1085.36 916.014 1085.47 915.293 1085.47 914.497C1085.47 913.696 1085.36 912.972 1085.12 912.324C1084.89 911.67 1084.55 911.151 1084.08 910.764C1083.62 910.378 1083.04 910.185 1082.34 910.185C1081.63 910.185 1081.04 910.378 1080.57 910.764C1080.11 911.151 1079.76 911.67 1079.52 912.324C1079.3 912.972 1079.18 913.696 1079.18 914.497C1079.18 915.293 1079.3 916.014 1079.52 916.662C1079.76 917.31 1080.11 917.827 1080.57 918.213C1081.04 918.594 1081.63 918.784 1082.34 918.784ZM1091.35 921V903.545H1094.44V910.074H1094.57C1094.73 909.756 1094.95 909.418 1095.24 909.06C1095.53 908.696 1095.92 908.386 1096.42 908.131C1096.91 907.869 1097.54 907.739 1098.31 907.739C1099.32 907.739 1100.23 907.997 1101.04 908.514C1101.86 909.026 1102.51 909.784 1102.99 910.79C1103.47 911.79 1103.71 913.017 1103.71 914.472C1103.71 915.909 1103.48 917.131 1103 918.136C1102.53 919.142 1101.89 919.909 1101.08 920.438C1100.27 920.966 1099.35 921.23 1098.32 921.23C1097.57 921.23 1096.95 921.105 1096.45 920.855C1095.96 920.605 1095.56 920.304 1095.26 919.952C1094.96 919.594 1094.73 919.256 1094.57 918.938H1094.39V921H1091.35ZM1094.38 914.455C1094.38 915.301 1094.5 916.043 1094.74 916.679C1094.98 917.315 1095.33 917.812 1095.79 918.17C1096.25 918.523 1096.8 918.699 1097.46 918.699C1098.14 918.699 1098.71 918.517 1099.17 918.153C1099.63 917.784 1099.98 917.281 1100.21 916.645C1100.45 916.003 1100.57 915.273 1100.57 914.455C1100.57 913.642 1100.45 912.92 1100.22 912.29C1099.99 911.659 1099.64 911.165 1099.18 910.807C1098.72 910.449 1098.14 910.27 1097.46 910.27C1096.8 910.27 1096.24 910.443 1095.78 910.79C1095.32 911.136 1094.97 911.622 1094.73 912.247C1094.5 912.872 1094.38 913.608 1094.38 914.455ZM1114.68 915.494V907.909H1117.76V921H1114.77V918.673H1114.64C1114.34 919.406 1113.86 920.006 1113.18 920.472C1112.51 920.937 1111.68 921.17 1110.7 921.17C1109.84 921.17 1109.08 920.98 1108.42 920.599C1107.77 920.213 1107.26 919.653 1106.89 918.92C1106.52 918.182 1106.34 917.29 1106.34 916.244V907.909H1109.42V915.767C1109.42 916.597 1109.65 917.256 1110.1 917.744C1110.56 918.233 1111.15 918.477 1111.89 918.477C1112.35 918.477 1112.79 918.366 1113.21 918.145C1113.64 917.923 1113.99 917.594 1114.26 917.156C1114.54 916.713 1114.68 916.159 1114.68 915.494ZM1131.28 911.369L1128.47 911.676C1128.39 911.392 1128.25 911.125 1128.05 910.875C1127.86 910.625 1127.6 910.423 1127.27 910.27C1126.94 910.116 1126.54 910.04 1126.06 910.04C1125.42 910.04 1124.88 910.179 1124.44 910.457C1124.01 910.736 1123.79 911.097 1123.8 911.54C1123.79 911.92 1123.93 912.23 1124.22 912.469C1124.51 912.707 1124.99 912.903 1125.65 913.057L1127.88 913.534C1129.12 913.801 1130.04 914.224 1130.64 914.804C1131.25 915.384 1131.56 916.142 1131.56 917.08C1131.56 917.903 1131.32 918.631 1130.84 919.261C1130.37 919.886 1129.71 920.375 1128.87 920.727C1128.03 921.08 1127.06 921.256 1125.97 921.256C1124.37 921.256 1123.08 920.92 1122.1 920.25C1121.13 919.574 1120.54 918.634 1120.36 917.429L1123.37 917.139C1123.5 917.73 1123.79 918.176 1124.24 918.477C1124.68 918.778 1125.25 918.929 1125.97 918.929C1126.7 918.929 1127.29 918.778 1127.73 918.477C1128.18 918.176 1128.4 917.804 1128.4 917.361C1128.4 916.986 1128.26 916.676 1127.97 916.432C1127.68 916.187 1127.24 916 1126.64 915.869L1124.41 915.401C1123.15 915.139 1122.22 914.699 1121.62 914.08C1121.02 913.455 1120.72 912.665 1120.72 911.71C1120.72 910.903 1120.94 910.205 1121.38 909.614C1121.83 909.017 1122.45 908.557 1123.25 908.233C1124.05 907.903 1124.97 907.739 1126.02 907.739C1127.55 907.739 1128.76 908.065 1129.64 908.719C1130.52 909.372 1131.07 910.256 1131.28 911.369ZM1139.82 921.256C1138.54 921.256 1137.43 920.974 1136.5 920.412C1135.56 919.849 1134.83 919.062 1134.31 918.051C1133.8 917.04 1133.55 915.858 1133.55 914.506C1133.55 913.153 1133.8 911.969 1134.31 910.952C1134.83 909.935 1135.56 909.145 1136.5 908.582C1137.43 908.02 1138.54 907.739 1139.82 907.739C1141.1 907.739 1142.21 908.02 1143.14 908.582C1144.08 909.145 1144.8 909.935 1145.32 910.952C1145.83 911.969 1146.09 913.153 1146.09 914.506C1146.09 915.858 1145.83 917.04 1145.32 918.051C1144.8 919.062 1144.08 919.849 1143.14 920.412C1142.21 920.974 1141.1 921.256 1139.82 921.256ZM1139.84 918.784C1140.53 918.784 1141.11 918.594 1141.57 918.213C1142.04 917.827 1142.39 917.31 1142.61 916.662C1142.85 916.014 1142.96 915.293 1142.96 914.497C1142.96 913.696 1142.85 912.972 1142.61 912.324C1142.39 911.67 1142.04 911.151 1141.57 910.764C1141.11 910.378 1140.53 910.185 1139.84 910.185C1139.13 910.185 1138.53 910.378 1138.06 910.764C1137.6 911.151 1137.25 911.67 1137.01 912.324C1136.79 912.972 1136.67 913.696 1136.67 914.497C1136.67 915.293 1136.79 916.014 1137.01 916.662C1137.25 917.31 1137.6 917.827 1138.06 918.213C1138.53 918.594 1139.13 918.784 1139.84 918.784ZM1159.96 907.909L1155.3 921H1151.89L1147.23 907.909H1150.51L1153.52 917.634H1153.66L1156.68 907.909H1159.96ZM1165.49 921.264C1164.66 921.264 1163.91 921.116 1163.24 920.821C1162.58 920.52 1162.06 920.077 1161.68 919.491C1161.29 918.906 1161.1 918.185 1161.1 917.327C1161.1 916.588 1161.24 915.977 1161.51 915.494C1161.79 915.011 1162.16 914.625 1162.63 914.335C1163.1 914.045 1163.63 913.827 1164.22 913.679C1164.82 913.526 1165.44 913.415 1166.07 913.347C1166.84 913.267 1167.46 913.196 1167.94 913.134C1168.42 913.065 1168.76 912.963 1168.98 912.827C1169.2 912.685 1169.31 912.466 1169.31 912.17V912.119C1169.31 911.477 1169.12 910.98 1168.74 910.628C1168.36 910.276 1167.81 910.099 1167.1 910.099C1166.34 910.099 1165.74 910.264 1165.3 910.594C1164.86 910.923 1164.56 911.312 1164.41 911.761L1161.53 911.352C1161.76 910.557 1162.13 909.892 1162.66 909.358C1163.18 908.818 1163.82 908.415 1164.57 908.148C1165.33 907.875 1166.16 907.739 1167.08 907.739C1167.71 907.739 1168.34 907.812 1168.96 907.96C1169.59 908.108 1170.16 908.352 1170.68 908.693C1171.19 909.028 1171.61 909.486 1171.92 910.065C1172.24 910.645 1172.4 911.369 1172.4 912.239V921H1169.43V919.202H1169.33C1169.14 919.565 1168.88 919.906 1168.54 920.224C1168.2 920.537 1167.78 920.79 1167.27 920.983C1166.76 921.17 1166.17 921.264 1165.49 921.264ZM1166.29 918.997C1166.91 918.997 1167.44 918.875 1167.9 918.631C1168.35 918.381 1168.7 918.051 1168.95 917.642C1169.2 917.233 1169.32 916.787 1169.32 916.304V914.761C1169.22 914.841 1169.06 914.915 1168.83 914.983C1168.6 915.051 1168.34 915.111 1168.06 915.162C1167.77 915.213 1167.49 915.259 1167.22 915.298C1166.94 915.338 1166.7 915.372 1166.49 915.401C1166.03 915.463 1165.62 915.565 1165.25 915.707C1164.89 915.849 1164.6 916.048 1164.39 916.304C1164.18 916.554 1164.08 916.878 1164.08 917.276C1164.08 917.844 1164.29 918.273 1164.7 918.562C1165.12 918.852 1165.64 918.997 1166.29 918.997ZM1166.03 906.188L1167.94 902.293H1170.96L1168.34 906.188H1166.03ZM1053.35 941V939.04L1060.1 930.577V930.466H1053.57V927.909H1063.87V930.014L1057.45 938.332V938.443H1064.1V941H1053.35ZM1070.76 941.264C1069.93 941.264 1069.19 941.116 1068.52 940.821C1067.86 940.52 1067.34 940.077 1066.95 939.491C1066.57 938.906 1066.38 938.185 1066.38 937.327C1066.38 936.588 1066.52 935.977 1066.79 935.494C1067.06 935.011 1067.44 934.625 1067.91 934.335C1068.38 934.045 1068.91 933.827 1069.5 933.679C1070.1 933.526 1070.71 933.415 1071.35 933.347C1072.12 933.267 1072.74 933.196 1073.22 933.134C1073.69 933.065 1074.04 932.963 1074.26 932.827C1074.48 932.685 1074.59 932.466 1074.59 932.17V932.119C1074.59 931.477 1074.4 930.98 1074.02 930.628C1073.64 930.276 1073.09 930.099 1072.37 930.099C1071.62 930.099 1071.02 930.264 1070.57 930.594C1070.14 930.923 1069.84 931.312 1069.69 931.761L1066.81 931.352C1067.04 930.557 1067.41 929.892 1067.93 929.358C1068.46 928.818 1069.09 928.415 1069.85 928.148C1070.61 927.875 1071.44 927.739 1072.36 927.739C1072.99 927.739 1073.61 927.812 1074.24 927.96C1074.86 928.108 1075.44 928.352 1075.95 928.693C1076.47 929.028 1076.88 929.486 1077.2 930.065C1077.52 930.645 1077.67 931.369 1077.67 932.239V941H1074.71V939.202H1074.61C1074.42 939.565 1074.15 939.906 1073.81 940.224C1073.48 940.537 1073.06 940.79 1072.54 940.983C1072.04 941.17 1071.44 941.264 1070.76 941.264ZM1071.56 938.997C1072.18 938.997 1072.72 938.875 1073.17 938.631C1073.63 938.381 1073.98 938.051 1074.22 937.642C1074.47 937.233 1074.6 936.787 1074.6 936.304V934.761C1074.5 934.841 1074.34 934.915 1074.1 934.983C1073.88 935.051 1073.62 935.111 1073.34 935.162C1073.05 935.213 1072.77 935.259 1072.49 935.298C1072.21 935.338 1071.97 935.372 1071.77 935.401C1071.31 935.463 1070.9 935.565 1070.53 935.707C1070.17 935.849 1069.88 936.048 1069.67 936.304C1069.46 936.554 1069.36 936.878 1069.36 937.276C1069.36 937.844 1069.56 938.273 1069.98 938.562C1070.39 938.852 1070.92 938.997 1071.56 938.997ZM1091.12 931.369L1088.31 931.676C1088.23 931.392 1088.09 931.125 1087.89 930.875C1087.7 930.625 1087.44 930.423 1087.11 930.27C1086.78 930.116 1086.38 930.04 1085.9 930.04C1085.26 930.04 1084.72 930.179 1084.28 930.457C1083.85 930.736 1083.63 931.097 1083.64 931.54C1083.63 931.92 1083.77 932.23 1084.06 932.469C1084.35 932.707 1084.82 932.903 1085.49 933.057L1087.72 933.534C1088.96 933.801 1089.88 934.224 1090.48 934.804C1091.09 935.384 1091.4 936.142 1091.4 937.08C1091.4 937.903 1091.16 938.631 1090.68 939.261C1090.21 939.886 1089.55 940.375 1088.71 940.727C1087.87 941.08 1086.9 941.256 1085.81 941.256C1084.21 941.256 1082.92 940.92 1081.94 940.25C1080.97 939.574 1080.38 938.634 1080.2 937.429L1083.21 937.139C1083.34 937.73 1083.63 938.176 1084.07 938.477C1084.52 938.778 1085.09 938.929 1085.81 938.929C1086.54 938.929 1087.13 938.778 1087.57 938.477C1088.02 938.176 1088.24 937.804 1088.24 937.361C1088.24 936.986 1088.1 936.676 1087.81 936.432C1087.52 936.187 1087.08 936 1086.48 935.869L1084.25 935.401C1082.99 935.139 1082.06 934.699 1081.46 934.08C1080.86 933.455 1080.56 932.665 1080.56 931.71C1080.56 930.903 1080.78 930.205 1081.22 929.614C1081.67 929.017 1082.29 928.557 1083.09 928.233C1083.89 927.903 1084.81 927.739 1085.86 927.739C1087.39 927.739 1088.6 928.065 1089.48 928.719C1090.36 929.372 1090.91 930.256 1091.12 931.369ZM1100.49 927.909V930.295H1092.96V927.909H1100.49ZM1094.82 924.773H1097.9V937.062C1097.9 937.477 1097.97 937.795 1098.09 938.017C1098.22 938.233 1098.39 938.381 1098.6 938.46C1098.81 938.54 1099.05 938.58 1099.3 938.58C1099.49 938.58 1099.67 938.565 1099.83 938.537C1099.99 938.509 1100.12 938.483 1100.2 938.46L1100.72 940.872C1100.56 940.929 1100.32 940.991 1100.02 941.06C1099.72 941.128 1099.35 941.168 1098.91 941.179C1098.14 941.202 1097.44 941.085 1096.82 940.83C1096.2 940.568 1095.71 940.165 1095.35 939.619C1094.99 939.074 1094.81 938.392 1094.82 937.574V924.773ZM1106.83 941.264C1106 941.264 1105.26 941.116 1104.59 940.821C1103.93 940.52 1103.41 940.077 1103.02 939.491C1102.64 938.906 1102.45 938.185 1102.45 937.327C1102.45 936.588 1102.59 935.977 1102.86 935.494C1103.13 935.011 1103.51 934.625 1103.98 934.335C1104.45 934.045 1104.98 933.827 1105.57 933.679C1106.17 933.526 1106.78 933.415 1107.42 933.347C1108.19 933.267 1108.81 933.196 1109.29 933.134C1109.76 933.065 1110.11 932.963 1110.33 932.827C1110.55 932.685 1110.66 932.466 1110.66 932.17V932.119C1110.66 931.477 1110.47 930.98 1110.09 930.628C1109.71 930.276 1109.16 930.099 1108.44 930.099C1107.69 930.099 1107.09 930.264 1106.65 930.594C1106.21 930.923 1105.91 931.312 1105.76 931.761L1102.88 931.352C1103.11 930.557 1103.48 929.892 1104 929.358C1104.53 928.818 1105.17 928.415 1105.92 928.148C1106.68 927.875 1107.51 927.739 1108.43 927.739C1109.06 927.739 1109.69 927.812 1110.31 927.96C1110.94 928.108 1111.51 928.352 1112.02 928.693C1112.54 929.028 1112.95 929.486 1113.27 930.065C1113.59 930.645 1113.74 931.369 1113.74 932.239V941H1110.78V939.202H1110.68C1110.49 939.565 1110.22 939.906 1109.88 940.224C1109.55 940.537 1109.13 940.79 1108.61 940.983C1108.11 941.17 1107.51 941.264 1106.83 941.264ZM1107.63 938.997C1108.25 938.997 1108.79 938.875 1109.24 938.631C1109.7 938.381 1110.05 938.051 1110.29 937.642C1110.54 937.233 1110.67 936.787 1110.67 936.304V934.761C1110.57 934.841 1110.41 934.915 1110.17 934.983C1109.95 935.051 1109.69 935.111 1109.41 935.162C1109.12 935.213 1108.84 935.259 1108.56 935.298C1108.28 935.338 1108.04 935.372 1107.84 935.401C1107.38 935.463 1106.97 935.565 1106.6 935.707C1106.24 935.849 1105.95 936.048 1105.74 936.304C1105.53 936.554 1105.43 936.878 1105.43 937.276C1105.43 937.844 1105.63 938.273 1106.05 938.562C1106.46 938.852 1106.99 938.997 1107.63 938.997ZM1107.38 926.188L1109.29 922.293H1112.3L1109.69 926.188H1107.38ZM1128.07 927.909L1123.41 941H1120L1115.34 927.909H1118.63L1121.64 937.634H1121.77L1124.79 927.909H1128.07ZM1133.02 936.892L1133.01 933.168H1133.5L1138.21 927.909H1141.81L1136.03 934.352H1135.39L1133.02 936.892ZM1130.21 941V923.545H1133.29V941H1130.21ZM1138.42 941L1134.16 935.043L1136.24 932.869L1142.11 941H1138.42ZM1147.64 941.264C1146.81 941.264 1146.06 941.116 1145.4 940.821C1144.74 940.52 1144.21 940.077 1143.83 939.491C1143.45 938.906 1143.26 938.185 1143.26 937.327C1143.26 936.588 1143.39 935.977 1143.67 935.494C1143.94 935.011 1144.31 934.625 1144.78 934.335C1145.25 934.045 1145.79 933.827 1146.38 933.679C1146.97 933.526 1147.59 933.415 1148.23 933.347C1148.99 933.267 1149.61 933.196 1150.09 933.134C1150.57 933.065 1150.92 932.963 1151.13 932.827C1151.35 932.685 1151.46 932.466 1151.46 932.17V932.119C1151.46 931.477 1151.27 930.98 1150.89 930.628C1150.51 930.276 1149.96 930.099 1149.25 930.099C1148.49 930.099 1147.89 930.264 1147.45 930.594C1147.01 930.923 1146.72 931.312 1146.56 931.761L1143.68 931.352C1143.91 930.557 1144.29 929.892 1144.81 929.358C1145.33 928.818 1145.97 928.415 1146.73 928.148C1147.48 927.875 1148.32 927.739 1149.23 927.739C1149.86 927.739 1150.49 927.812 1151.11 927.96C1151.74 928.108 1152.31 928.352 1152.83 928.693C1153.34 929.028 1153.76 929.486 1154.07 930.065C1154.39 930.645 1154.55 931.369 1154.55 932.239V941H1151.58V939.202H1151.48C1151.29 939.565 1151.03 939.906 1150.69 940.224C1150.35 940.537 1149.93 940.79 1149.42 940.983C1148.91 941.17 1148.32 941.264 1147.64 941.264ZM1148.44 938.997C1149.06 938.997 1149.59 938.875 1150.05 938.631C1150.5 938.381 1150.85 938.051 1151.1 937.642C1151.35 937.233 1151.47 936.787 1151.47 936.304V934.761C1151.38 934.841 1151.21 934.915 1150.98 934.983C1150.75 935.051 1150.5 935.111 1150.21 935.162C1149.93 935.213 1149.65 935.259 1149.37 935.298C1149.09 935.338 1148.85 935.372 1148.64 935.401C1148.18 935.463 1147.77 935.565 1147.41 935.707C1147.04 935.849 1146.76 936.048 1146.55 936.304C1146.34 936.554 1146.23 936.878 1146.23 937.276C1146.23 937.844 1146.44 938.273 1146.85 938.562C1147.27 938.852 1147.8 938.997 1148.44 938.997Z" fill="#081C41"/>
<g clip-path="url(#clip1_959_5)">
<path fill-rule="evenodd" clip-rule="evenodd" d="M1124.08 889.636H1120.99V893.867C1120.99 895.332 1119.81 896.511 1118.34 896.511H1114.68C1113.21 896.511 1112.03 895.332 1112.03 893.867V889.677H1095.88V893.867C1095.88 895.332 1094.7 896.511 1093.24 896.511H1089.58C1088.11 896.511 1086.93 895.332 1086.93 893.867V889.677H1083.88V856.316C1083.88 853.224 1085.67 850.987 1089.29 849.603C1096.45 846.796 1111.51 846.796 1118.71 849.603C1122.33 850.987 1124.12 853.224 1124.12 856.316V889.636H1124.08ZM1127.25 863.924H1125.7V872.712H1127.25C1128.23 872.712 1129 871.939 1129 870.962V865.673C1129 864.697 1128.23 863.924 1127.25 863.924ZM1080.75 863.924H1082.3V872.712H1080.75C1079.77 872.712 1079 871.939 1079 870.962V865.673C1079 864.697 1079.77 863.924 1080.75 863.924ZM1097.88 850.987H1110.12C1110.49 850.987 1110.77 851.271 1110.77 851.638V853.753C1110.77 854.119 1110.49 854.404 1110.12 854.404H1097.88C1097.51 854.404 1097.23 854.119 1097.23 853.753V851.638C1097.23 851.271 1097.51 850.987 1097.88 850.987ZM1088.32 856.926H1119.52C1119.93 856.926 1120.29 857.293 1120.29 857.699V875.112C1120.29 875.519 1119.93 875.885 1119.52 875.885H1088.32C1087.91 875.885 1087.54 875.519 1087.54 875.112V857.699C1087.54 857.293 1087.87 856.926 1088.32 856.926ZM1119.11 882.028C1119.11 881.255 1118.83 880.564 1118.3 880.035C1117.77 879.506 1117.08 879.221 1116.31 879.221C1115.53 879.221 1114.88 879.506 1114.31 880.035C1113.74 880.564 1113.5 881.255 1113.5 882.028C1113.5 882.801 1113.78 883.452 1114.31 883.981C1114.88 884.51 1115.53 884.795 1116.31 884.795C1117.08 884.795 1117.77 884.51 1118.3 883.981C1118.87 883.452 1119.11 882.801 1119.11 882.028ZM1094.5 882.028C1094.5 881.255 1094.22 880.564 1093.69 880.035C1093.16 879.506 1092.47 879.221 1091.69 879.221C1090.92 879.221 1090.23 879.506 1089.7 880.035C1089.17 880.564 1088.89 881.255 1088.89 882.028C1088.89 882.801 1089.13 883.452 1089.7 883.981C1090.23 884.51 1090.92 884.795 1091.69 884.795C1092.51 884.795 1093.16 884.51 1093.69 883.981C1094.22 883.452 1094.5 882.801 1094.5 882.028Z" fill="#86816C"/>
</g>
<path d="M450.5 192L263 39.5L191 122.5L378.5 274L450.5 192Z" fill="#B8AD7E"/>
<path d="M258.5 483L32.5 291.5L0 330.5V442L169 585L258.5 483Z" fill="#B8AD7E"/>
<defs>
<clipPath id="clip0_959_5">
<rect width="62" height="55" fill="white" transform="translate(860 266)"/>
</clipPath>
<clipPath id="clip1_959_5">
<rect width="50" height="50" fill="white" transform="translate(1079 847)"/>
</clipPath>
</defs>
</svg>
